SplineFontDB: 3.2
FontName: Untitled1
FullName: Untitled1
FamilyName: Untitled1
Weight: Regular
Copyright: Copyright (c) 2023, 高波航太
UComments: "2023-5-18: Created with FontForge (http://fontforge.org)"
Version: 001.000
ItalicAngle: 0
UnderlinePosition: -100
UnderlineWidth: 50
Ascent: 800
Descent: 200
InvalidEm: 0
LayerCount: 2
Layer: 0 0 "+gMyXYgAA" 1
Layer: 1 0 "+Uk2XYgAA" 0
XUID: [1021 811 -1893977285 14669360]
StyleMap: 0x0000
FSType: 0
OS2Version: 0
OS2_WeightWidthSlopeOnly: 0
OS2_UseTypoMetrics: 1
CreationTime: 1684412240
ModificationTime: 1684455769
OS2TypoAscent: 0
OS2TypoAOffset: 1
OS2TypoDescent: 0
OS2TypoDOffset: 1
OS2TypoLinegap: 90
OS2WinAscent: 0
OS2WinAOffset: 1
OS2WinDescent: 0
OS2WinDOffset: 1
HheadAscent: 0
HheadAOffset: 1
HheadDescent: 0
HheadDOffset: 1
DEI: 91125
Encoding: ISO8859-1
UnicodeInterp: none
NameList: AGL For New Fonts
DisplaySize: -48
AntiAlias: 1
FitToEm: 0
WinInfo: 80 16 4
BeginChars: 256 26

StartChar: a
Encoding: 97 97 0
Width: 372
Flags: W
HStem: -0.75 60<88.3598 178.64> 51.75 60<276.694 358.5> 179.25 60<88.3598 178.64> 242.142 21G<74.4111 76.9985> 291.75 60<87.2285 178.64>
VStem: 13.5 60<74.1098 164.39 251.775 277.955> 193.5 60<62.9843 168.931 207.9 275.735>
LayerCount: 2
Fore
SplineSet
193.5 119.25 m 0xbe
 193.5 152.375 166.625 179.25 133.5 179.25 c 0
 100.375 179.25 73.5 152.375 73.5 119.25 c 0
 73.5 86.125 100.375 59.25 133.5 59.25 c 0
 166.625 59.25 193.5 86.125 193.5 119.25 c 0xbe
253.5 119.25 m 0
 253.5 53.013671875 199.736328125 -0.75 133.5 -0.75 c 0
 67.263671875 -0.75 13.5 53.013671875 13.5 119.25 c 0
 13.5 185.486328125 67.263671875 239.25 133.5 239.25 c 0
 199.736328125 239.25 253.5 185.486328125 253.5 119.25 c 0
358.5 51.75 m 1x7e
 298.833984375 51.75 193.5 51.75 193.5 231.75 c 0
 193.5 264.875 166.625 291.75 133.5 291.75 c 0
 103.734375 291.75 79.5859375 271.5 74.4111328125 242.141601562 c 1
 74.4111328125 242.141601562 15.3134765625 252.5625 15.322265625 252.615234375 c 0
 25.484375 310.236328125 74.9443359375 351.75 133.5 351.75 c 0
 199.736328125 351.75 253.5 297.986328125 253.5 231.75 c 0
 253.5 153.0859375 274.256835938 130.65625 291.599609375 121.408203125 c 0
 307.607421875 112.87109375 331.44140625 111.75 358.5 111.75 c 1
 358.5 51.75 l 1x7e
EndSplineSet
Validated: 8912933
EndChar

StartChar: b
Encoding: 98 98 1
Width: 400
Flags: W
HStem: 1 60<163.872 281.128> 241 60<163.872 281.128> 571 60<27.5 58.0251>
VStem: 72.5 60<1 36.0586 84.7598 217.24> 312.5 60<92.3716 209.628>
LayerCount: 2
Fore
SplineSet
312.5 151 m 0
 312.5 200.684570312 272.184570312 241 222.5 241 c 0
 172.815429688 241 132.5 200.684570312 132.5 151 c 0
 132.5 101.315429688 172.815429688 61 222.5 61 c 0
 272.184570312 61 312.5 101.315429688 312.5 151 c 0
372.5 151 m 0
 372.5 68.2041015625 305.295898438 1 222.5 1 c 0
 139.704101562 1 72.5 68.2041015625 72.5 151 c 0
 72.5 233.795898438 139.704101562 301 222.5 301 c 0
 305.295898438 301 372.5 233.795898438 372.5 151 c 0
27.5 571 m 1
 27.5 631 l 1
 44.20703125 631 68.634765625 633.10546875 90.01171875 614.720703125 c 0
 106.806640625 600.276367188 114.083984375 579.6953125 119.083984375 554.099609375 c 0
 133.28125 481.408203125 132.5 334.776367188 132.5 1 c 1
 72.5 1 l 1
 72.5 381.991210938 71.71484375 536.865234375 52.228515625 567.537109375 c 0
 50.822265625 569.75 50.9287109375 569.245117188 50.685546875 569.36328125 c 0
 49.947265625 569.720703125 42.943359375 571 27.5 571 c 1
EndSplineSet
Validated: 37
EndChar

StartChar: g
Encoding: 103 103 2
Width: 452
Flags: W
HStem: -202 60<136.971 272.569> 98 60<136.971 270.029> 158 60<218.36 308.64> 323 60<399.247 428.5> 338 60<218.36 308.64>
VStem: 23.5 60<-88.5292 44.5292> 143.5 60<232.86 323.14> 323.5 60<-90.1998 -25.1318 -22 184.42 228.319 327.681>
LayerCount: 2
Fore
SplineSet
203.5 -202 m 0xc7
 104.14453125 -202 23.5 -121.35546875 23.5 -22 c 0
 23.5 77.35546875 104.14453125 158 203.5 158 c 0
 302.85546875 158 383.5 77.35546875 383.5 -22 c 1
 323.5 -22 l 1
 323.5 44.244140625 269.744140625 98 203.5 98 c 0
 137.255859375 98 83.5 44.244140625 83.5 -22 c 0
 83.5 -88.244140625 137.255859375 -142 203.5 -142 c 0
 269.04296875 -142 322.336914062 -89.634765625 323.48046875 -24.083984375 c 1
 383.47265625 -25.1318359375 l 1
 381.759765625 -123.334960938 301.717773438 -202 203.5 -202 c 0xc7
428.5 383 m 1x97
 428.5 323 l 1
 421.389648438 323 401.220703125 323 399.135742188 320.361328125 c 0
 383.5 300.57421875 383.5 184.296875 383.5 -22 c 1
 323.5 -22 l 1
 323.5 202.533203125 323.67578125 284.087890625 337.71875 329.026367188 c 0
 343.546875 347.67578125 354.1875 364.568359375 371.361328125 373.797851562 c 0
 391.58984375 384.671875 410.833984375 383 428.5 383 c 1x97
323.5 278 m 0
 323.5 311.125 296.625 338 263.5 338 c 0
 230.375 338 203.5 311.125 203.5 278 c 0
 203.5 244.875 230.375 218 263.5 218 c 0xaf
 296.625 218 323.5 244.875 323.5 278 c 0
383.5 278 m 0
 383.5 211.763671875 329.736328125 158 263.5 158 c 0xcf
 197.263671875 158 143.5 211.763671875 143.5 278 c 0
 143.5 344.236328125 197.263671875 398 263.5 398 c 0
 329.736328125 398 383.5 344.236328125 383.5 278 c 0
EndSplineSet
Validated: 37
EndChar

StartChar: c
Encoding: 99 99 3
Width: 400
Flags: W
HStem: 1 360<121.695 275.475>
VStem: 41.0527 60<114.626 247.378>
LayerCount: 2
Fore
SplineSet
312.96875 258.15234375 m 4
 239.57421875 345.622070312 101.052734375 290.215820312 101.052734375 181 c 4
 101.052734375 71.8134765625 239.54296875 16.33984375 312.9921875 103.876953125 c 5
 358.947265625 65.31640625 l 5
 323.921875 23.572265625 275.474609375 1 221.052734375 1 c 4
 121.6953125 1 41.052734375 81.64453125 41.052734375 181 c 4
 41.052734375 280.35546875 121.6953125 361 221.052734375 361 c 4
 275.474609375 361 323.921875 338.427734375 358.947265625 296.68359375 c 5
 358.947265625 296.68359375 312.9921875 258.123046875 312.96875 258.15234375 c 4
EndSplineSet
Validated: 33
EndChar

StartChar: d
Encoding: 100 100 4
Width: 400
Flags: W
HStem: 1 60<118.872 236.128 341.306 372.5> 241 60<118.872 236.128>
VStem: 27.5 60<92.3716 209.628> 267.5 60<84.7598 217.24 413.989 631>
LayerCount: 2
Fore
SplineSet
267.5 151 m 4
 267.5 200.684570312 227.184570312 241 177.5 241 c 4
 127.815429688 241 87.5 200.684570312 87.5 151 c 4
 87.5 101.315429688 127.815429688 61 177.5 61 c 4
 227.184570312 61 267.5 101.315429688 267.5 151 c 4
327.5 151 m 4
 327.5 68.2041015625 260.295898438 1 177.5 1 c 4
 94.7041015625 1 27.5 68.2041015625 27.5 151 c 4
 27.5 233.795898438 94.7041015625 301 177.5 301 c 4
 260.295898438 301 327.5 233.795898438 327.5 151 c 4
267.5 631 m 5
 327.5 631 l 5
 327.5 250.008789062 328.28515625 95.134765625 347.771484375 64.462890625 c 4
 349.177734375 62.25 349.071289062 62.7548828125 349.314453125 62.63671875 c 4
 350.052734375 62.279296875 357.056640625 61 372.5 61 c 5
 372.5 1 l 5
 355.79296875 1 331.365234375 -1.10546875 309.98828125 17.279296875 c 4
 293.193359375 31.7236328125 285.916015625 52.3046875 280.916015625 77.900390625 c 4
 266.71875 150.591796875 267.5 297.223632812 267.5 631 c 5
EndSplineSet
Validated: 37
EndChar

StartChar: e
Encoding: 101 101 5
Width: 383
Flags: W
HStem: 0 21G<149.614 226.503> 150 60<49.292 273.651> 240.906 20G<303.611 304.874> 300 60<133.313 199.292>
VStem: 49.292 30<150 210> 304.874 55.7832<221.01 250.375>
LayerCount: 2
Fore
SplineSet
199.291992188 360 m 1
 199.291992188 300 l 1
 133.046875 300 79.2919921875 246.244140625 79.2919921875 180 c 0
 79.2919921875 70.8134765625 217.782226562 15.33984375 291.232421875 102.876953125 c 1
 337.1875 64.31640625 l 1
 302.161132812 22.572265625 253.713867188 0 199.291992188 0 c 0
 99.935546875 0 19.2919921875 80.64453125 19.2919921875 180 c 0
 19.2919921875 279.35546875 99.935546875 360 199.291992188 360 c 1
49.2919921875 150 m 1
 49.2919921875 210 l 1
 193.346679688 210 281.772460938 210 296.913085938 220.931640625 c 0
 298.702148438 222.22265625 302.348632812 248.282226562 304.874023438 260.90625 c 1
 304.874023438 260.90625 363.71875 249.137695312 363.708007812 249.09375 c 0
 362.481445312 242.955078125 361.557617188 237.213867188 360.657226562 231.580078125 c 0
 356.297851562 204.331054688 351.473632812 174.19140625 308.424804688 160.977539062 c 0
 274.530273438 150.571289062 224.965820312 150 49.2919921875 150 c 1
EndSplineSet
Validated: 8912933
EndChar

StartChar: f
Encoding: 102 102 6
Width: 423
Flags: W
HStem: -202 60<75.4962 166.64> 238.506 21G<353.382 412.83> 278 60<256.36 347.504>
VStem: 181.5 60<-125.985 261.985>
LayerCount: 2
Fore
SplineSet
301.5 278 m 0
 268.375 278 241.5 251.125 241.5 218 c 2
 241.5 -82 l 2
 241.5 -148.236328125 187.736328125 -202 121.5 -202 c 0
 70.54296875 -202 26.169921875 -170.953125 8.7265625 -123.03125 c 1
 65.1181640625 -102.505859375 l 1
 74.1171875 -127.23046875 95.177734375 -142 121.5 -142 c 0
 154.625 -142 181.5 -115.125 181.5 -82 c 2
 181.5 218 l 2
 181.5 284.236328125 235.263671875 338 301.5 338 c 0
 352.45703125 338 396.830078125 306.953125 414.2734375 259.03125 c 1
 357.881835938 238.505859375 l 1
 348.8828125 263.23046875 327.822265625 278 301.5 278 c 0
EndSplineSet
Validated: 524289
EndChar

StartChar: h
Encoding: 104 104 7
Width: 437
Flags: W
HStem: 0 21G<90.9297 150.93> 0 21G<90.9297 150.93> 570 60<45.9297 76.455>
VStem: 90.9297 60<0 176.927> 329.563 59.0859<103.26 179.502>
LayerCount: 2
Fore
SplineSet
45.9296875 570 m 1xb8
 45.9296875 630 l 1
 62.63671875 630 87.064453125 632.10546875 108.442382812 613.720703125 c 0
 143.954101562 583.180664062 149.82421875 515.80859375 150.764648438 239.857421875 c 1
 258.755859375 321.251953125 412.201171875 227.41015625 388.649414062 93.9228515625 c 1
 388.649414062 93.9228515625 329.5546875 104.349609375 329.563476562 104.40234375 c 0
 339.282226562 159.4921875 296.7578125 210 240.9296875 210 c 0
 191.564453125 210 151.447265625 170.200195312 150.934570312 120.955078125 c 0
 150.943359375 83.634765625 150.9296875 43.3984375 150.9296875 0 c 1
 90.9296875 0 l 1
 90.9296875 380.991210938 90.14453125 535.865234375 70.658203125 566.537109375 c 0
 69.251953125 568.75 69.3583984375 568.245117188 69.115234375 568.36328125 c 0
 68.376953125 568.720703125 61.3740234375 570 45.9296875 570 c 1xb8
EndSplineSet
Validated: 33
EndChar

StartChar: i
Encoding: 105 105 8
Width: 223
Flags: WO
HStem: -0.5 21G<81.5 141.5> 354.5 20G<81.5 141.5> 374.5 21G<141.5 201.5> 404.5 60<82.6421 140.358>
VStem: 21.5 60<330.889 403.358> 81.5 60<-0.5 355.227> 141.5 60<374.5 403.354>
LayerCount: 2
Fore
SplineSet
81.5 374.5 m 1xd8
 141.5 374.5 l 1xda
 141.5 -0.5 l 1
 81.5 -0.5 l 1xd4
 81.5 374.5 l 1xd8
201.5 374.5 m 1xba
 141.5 374.5 l 1
 141.5 391.064453125 128.064453125 404.5 111.5 404.5 c 0
 94.935546875 404.5 81.5 391.064453125 81.5 374.5 c 0xda
 81.5 347.801757812 115.626953125 332.73828125 134.498046875 355.2265625 c 1
 180.451171875 316.666015625 l 1
 126.515625 252.388671875 21.5 291.232421875 21.5 374.5 c 0
 21.5 424.17578125 61.82421875 464.5 111.5 464.5 c 0
 161.17578125 464.5 201.5 424.17578125 201.5 374.5 c 1xba
EndSplineSet
Validated: 8912933
EndChar

StartChar: j
Encoding: 106 106 9
Width: 400
Flags: W
HStem: -201 60<122.822 214.233> 349 20G<229.093 289.093> 369 21G<289.093 349.093> 399 60<230.235 287.951>
VStem: 50.9072 59.0977<-127.567 -100.578> 169.093 60<325.389 397.858> 229.093 60<-124.985 349.727> 289.093 60<369 397.854>
LayerCount: 2
Fore
SplineSet
229.092773438 369 m 1xdc
 289.092773438 369 l 1xdd
 289.092773438 -81 l 2xda
 289.092773438 -147.236328125 235.329101562 -201 169.092773438 -201 c 0
 110.538085938 -201 61.0771484375 -159.486328125 50.9072265625 -101.8125 c 1
 110.004882812 -91.3916015625 l 1
 115.1796875 -120.75 139.327148438 -141 169.092773438 -141 c 0xdc
 202.217773438 -141 229.092773438 -114.125 229.092773438 -81 c 2xda
 229.092773438 369 l 1xdc
349.092773438 369 m 1xbd
 289.092773438 369 l 1
 289.092773438 385.564453125 275.657226562 399 259.092773438 399 c 0
 242.528320312 399 229.092773438 385.564453125 229.092773438 369 c 0xdd
 229.092773438 342.301757812 263.219726562 327.23828125 282.090820312 349.7265625 c 1
 328.044921875 311.166015625 l 1
 274.109375 246.888671875 169.092773438 285.732421875 169.092773438 369 c 0
 169.092773438 418.67578125 209.416992188 459 259.092773438 459 c 0
 308.768554688 459 349.092773438 418.67578125 349.092773438 369 c 1xbd
EndSplineSet
Validated: 37
EndChar

StartChar: k
Encoding: 107 107 10
Width: 400
Flags: W
HStem: 0 21G<72.5156 132.516> 0 21G<72.5156 132.516> 570 60<27.5156 58.0409>
VStem: 72.5156 60<0 116.615>
LayerCount: 2
Fore
SplineSet
323.5703125 292.75390625 m 1x30
 244.62890625 321.483398438 162.515625 262.400390625 162.515625 180 c 0
 162.515625 89.31640625 261.26953125 29.16796875 342.548828125 76.095703125 c 1
 352.493164062 58.771484375 362.708984375 41.3759765625 372.484375 24.0966796875 c 1
 252.328125 -45.2783203125 102.515625 42.36328125 102.515625 180 c 0
 102.515625 304.5234375 226.709960938 391.8671875 344.09375 349.145507812 c 1
 323.5703125 292.75390625 l 1x30
27.515625 570 m 1
 27.515625 630 l 1
 44.22265625 630 68.650390625 632.10546875 90.0283203125 613.720703125 c 0
 106.822265625 599.276367188 114.099609375 578.6953125 119.099609375 553.099609375 c 0
 133.296875 480.408203125 132.515625 333.776367188 132.515625 0 c 1
 72.515625 0 l 1xb0
 72.515625 380.991210938 71.73046875 535.865234375 52.244140625 566.537109375 c 0
 50.837890625 568.75 50.9453125 568.245117188 50.701171875 568.36328125 c 0
 49.962890625 568.720703125 42.9599609375 570 27.515625 570 c 1
EndSplineSet
Validated: 37
EndChar

StartChar: l
Encoding: 108 108 11
Width: 200
Flags: W
HStem: 3 60<143.413 175> 603 60<25 56.5869>
VStem: 72.2422 57.7578<109.798 556.202>
LayerCount: 2
Fore
SplineSet
56.57421875 600.673828125 m 5
 56.869140625 600.788085938 55.69921875 603 25 603 c 5
 25 663 l 5
 43.0146484375 663 60.625 664.30078125 79.794921875 656.05859375 c 4
 121.673828125 638.05078125 125.373046875 583.227539062 127.7578125 535.37890625 c 4
 130.032226562 489.729492188 130 425.62890625 130 333 c 4
 130 183.806640625 130 78.91796875 143.42578125 65.326171875 c 5
 143.130859375 65.2119140625 144.30078125 63 175 63 c 5
 175 3 l 5
 156.985351562 3 139.375 1.69921875 120.205078125 9.94140625 c 4
 78.326171875 27.94921875 74.626953125 82.7724609375 72.2421875 130.62109375 c 4
 69.9677734375 176.270507812 70 240.37109375 70 333 c 4
 70 482.193359375 70 587.08203125 56.57421875 600.673828125 c 5
EndSplineSet
Validated: 33
EndChar

StartChar: m
Encoding: 109 109 12
Width: 557
Flags: W
HStem: 0 21G<61 121 271 331 481 541> 75 60<353.222 458.778> 270 60<16 47.5869>
VStem: 61 60<0 53.0266 112.098 226.466> 271 60<0 74.5156> 481 60<0 52.53>
CounterMasks: 1 1c
LayerCount: 2
Fore
SplineSet
331 0 m 1
 271 0 l 1
 271 74.515625 331.484375 135 406 135 c 0
 480.515625 135 541 74.515625 541 0 c 1
 481 0 l 1
 481 41.404296875 447.404296875 75 406 75 c 0
 364.595703125 75 331 41.404296875 331 0 c 1
47.57421875 267.673828125 m 1
 47.869140625 267.788085938 46.69921875 270 16 270 c 1
 16 330 l 1
 34.0146484375 330 51.625 331.30078125 70.794921875 323.05859375 c 0
 116.690429688 303.32421875 119.842773438 245.658203125 120.783203125 112.09765625 c 1
 209.907226562 172.045898438 331 107.806640625 331 0 c 1
 271 0 l 1
 271 41.404296875 237.404296875 75 196 75 c 0
 154.595703125 75 121 41.404296875 121 0 c 1
 61 0 l 1
 61 149.193359375 61 254.08203125 47.57421875 267.673828125 c 1
EndSplineSet
Validated: 8912933
EndChar

StartChar: n
Encoding: 110 110 13
Width: 424
Flags: W
HStem: 0 21G<54.5 114.5 354.5 414.5> 251.25 60<184.814 283.447> 270 60<9.5 41.0869>
VStem: 54.5 60<0 149.193> 354.5 60<0 146.089>
LayerCount: 2
Fore
SplineSet
234.5 251.25 m 0xd8
 175.205078125 251.25 114.5 162.875 114.5 0 c 1
 54.5 0 l 1
 54.5 129.776367188 88.337890625 221.794921875 141.76953125 271.88671875 c 0
 168.5859375 297.02734375 200.8515625 311.25 234.5 311.25 c 0
 321.478515625 311.25 414.5 215.4765625 414.5 0 c 1
 354.5 0 l 1
 354.5 162.87109375 293.798828125 251.25 234.5 251.25 c 0xd8
41.07421875 267.673828125 m 1
 41.369140625 267.788085938 40.19921875 270 9.5 270 c 1
 9.5 330 l 1xb8
 27.5146484375 330 45.125 331.30078125 64.294921875 323.05859375 c 0
 106.173828125 305.05078125 109.873046875 250.227539062 112.2578125 202.37890625 c 0
 114.532226562 156.729492188 114.5 92.62890625 114.5 0 c 1
 54.5 0 l 1
 54.5 149.193359375 54.5 254.08203125 41.07421875 267.673828125 c 1
EndSplineSet
Validated: 8912933
EndChar

StartChar: o
Encoding: 111 111 14
Width: 400
Flags: W
HStem: -0.5 60<133.471 266.529> 254.5 21G<170 230> 299.5 60<133.471 266.529> 384.5 20G<170 230>
VStem: 20 60<112.971 246.029> 170 60<254.5 404.5> 320 60<112.971 246.029>
CounterMasks: 1 0e
LayerCount: 2
Fore
SplineSet
320 179.5 m 4
 320 245.744140625 266.244140625 299.5 200 299.5 c 4
 133.755859375 299.5 80 245.744140625 80 179.5 c 4
 80 113.255859375 133.755859375 59.5 200 59.5 c 4
 266.244140625 59.5 320 113.255859375 320 179.5 c 4
380 179.5 m 4
 380 80.14453125 299.35546875 -0.5 200 -0.5 c 4
 100.64453125 -0.5 20 80.14453125 20 179.5 c 4
 20 278.85546875 100.64453125 359.5 200 359.5 c 4
 299.35546875 359.5 380 278.85546875 380 179.5 c 4
170 404.5 m 5
 230 404.5 l 5
 230 254.5 l 5
 170 254.5 l 5
 170 404.5 l 5
EndSplineSet
Validated: 5
EndChar

StartChar: p
Encoding: 112 112 15
Width: 400
Flags: W
HStem: -300 21G<72.5 132.5> 0 60<163.872 281.128> 240 60<163.872 281.128> 270 60<27.5 58.0251>
VStem: 72.5 60<-300 -82.9885 83.7598 216.24> 312.5 60<91.3716 208.628>
LayerCount: 2
Fore
SplineSet
312.5 150 m 0xec
 312.5 199.684570312 272.184570312 240 222.5 240 c 0
 172.815429688 240 132.5 199.684570312 132.5 150 c 0
 132.5 100.315429688 172.815429688 60 222.5 60 c 0
 272.184570312 60 312.5 100.315429688 312.5 150 c 0xec
372.5 150 m 0
 372.5 67.2041015625 305.295898438 0 222.5 0 c 0
 139.704101562 0 72.5 67.2041015625 72.5 150 c 0
 72.5 232.795898438 139.704101562 300 222.5 300 c 0
 305.295898438 300 372.5 232.795898438 372.5 150 c 0
27.5 270 m 1xdc
 27.5 330 l 1
 44.20703125 330 68.634765625 332.10546875 90.01171875 313.720703125 c 0
 106.806640625 299.276367188 114.083984375 278.6953125 119.083984375 253.099609375 c 0
 133.28125 180.408203125 132.5 33.7763671875 132.5 -300 c 1
 72.5 -300 l 1
 72.5 80.9912109375 71.71484375 235.865234375 52.228515625 266.537109375 c 0
 50.822265625 268.75 50.9287109375 268.245117188 50.685546875 268.36328125 c 0
 49.947265625 268.720703125 42.943359375 270 27.5 270 c 1xdc
EndSplineSet
Validated: 524325
EndChar

StartChar: q
Encoding: 113 113 16
Width: 400
Flags: W
HStem: -300 21G<267.5 327.5> 0 60<118.872 236.128> 240 60<118.872 236.128> 270 60<349.354 372.5>
VStem: 27.5 60<91.3716 208.628> 267.5 60<-300 -83.2404 83.7598 216.24>
LayerCount: 2
Fore
SplineSet
267.5 150 m 4xec
 267.5 199.684570312 227.184570312 240 177.5 240 c 4
 127.815429688 240 87.5 199.684570312 87.5 150 c 4
 87.5 100.315429688 127.815429688 60 177.5 60 c 4
 227.184570312 60 267.5 100.315429688 267.5 150 c 4xec
327.5 150 m 4
 327.5 67.2041015625 260.295898438 0 177.5 0 c 4
 94.7041015625 0 27.5 67.2041015625 27.5 150 c 4
 27.5 232.795898438 94.7041015625 300 177.5 300 c 4
 260.295898438 300 327.5 232.795898438 327.5 150 c 4
372.5 330 m 5xdc
 372.5 270 l 5
 357.056640625 270 350.052734375 268.720703125 349.314453125 268.36328125 c 4
 347.609375 267.536132812 343.197265625 258.921875 339.802734375 241.549804688 c 4
 328.28125 182.5546875 327.5 32.8916015625 327.5 -300 c 5
 267.5 -300 l 5
 267.5 33.7763671875 266.71875 180.408203125 280.916015625 253.099609375 c 4
 285.916015625 278.6953125 293.193359375 299.276367188 309.98828125 313.720703125 c 4
 331.365234375 332.10546875 355.79296875 330 372.5 330 c 5xdc
EndSplineSet
Validated: 524325
EndChar

StartChar: r
Encoding: 114 114 17
Width: 300
Flags: W
HStem: 0 21G<66.8574 126.857> 0 21G<66.8574 126.857> 270 60<21.8574 53.4443 180.328 268.809>
VStem: 66.8574 60<0 216.345>
LayerCount: 2
Fore
SplineSet
53.431640625 267.673828125 m 1xb0
 53.7265625 267.788085938 52.556640625 270 21.857421875 270 c 1
 21.857421875 330 l 1
 39.873046875 330 57.482421875 331.30078125 76.65234375 323.05859375 c 0
 91.541015625 316.65625 107.37890625 302.73828125 115.728515625 273.267578125 c 1
 131.6015625 290.14453125 189.33203125 342.927734375 278.142578125 327.263671875 c 1
 278.142578125 327.263671875 267.720703125 268.16796875 267.66796875 268.177734375 c 0
 194.197265625 281.134765625 126.857421875 224.435546875 126.857421875 150 c 2
 126.857421875 0 l 1
 66.857421875 0 l 1
 66.857421875 149.193359375 66.857421875 254.08203125 53.431640625 267.673828125 c 1xb0
EndSplineSet
Validated: 33
EndChar

StartChar: s
Encoding: 115 115 18
Width: 300
Flags: W
HStem: 0 60<104.86 195.14> 100 20G<30 90> 180 60<121.146 193.985> 270 21G<180 240> 300 60<121.142 178.858>
VStem: 30 60<76.0146 120> 60 60<241.142 298.858> 180 60<270 298.854> 210 60<74.8598 165.14>
LayerCount: 2
Fore
SplineSet
240 270 m 1xfb
 180 270 l 1
 180 286.564453125 166.564453125 300 150 300 c 0
 133.435546875 300 120 286.564453125 120 270 c 0xfb
 120 253.435546875 133.435546875 240 150 240 c 0
 216.236328125 240 270 186.236328125 270 120 c 0
 270 53.763671875 216.236328125 0 150 0 c 0
 83.763671875 0 30 53.763671875 30 120 c 1
 90 120 l 1
 90 86.875 116.875 60 150 60 c 0
 183.125 60 210 86.875 210 120 c 0xfc80
 210 153.125 183.125 180 150 180 c 0
 100.32421875 180 60 220.32421875 60 270 c 0
 60 319.67578125 100.32421875 360 150 360 c 0
 199.67578125 360 240 319.67578125 240 270 c 1xfb
EndSplineSet
Validated: 1
EndChar

StartChar: t
Encoding: 116 116 19
Width: 231
Flags: W
HStem: -3 60<110.867 205.5> 237 120<99.2081 191.792>
VStem: 25.5 60<256.333 477>
LayerCount: 2
Fore
SplineSet
205.5 297 m 0
 205.5 263.884765625 178.615234375 237 145.5 237 c 0
 112.384765625 237 85.5 263.884765625 85.5 297 c 0
 85.5 330.115234375 112.384765625 357 145.5 357 c 0
 178.615234375 357 205.5 330.115234375 205.5 297 c 0
25.5 477 m 1
 85.5 477 l 1
 85.5 245.44921875 85.5 123.237304688 107.845703125 80.333984375 c 0
 118.728515625 59.4375 134.23046875 57 205.5 57 c 1
 205.5 -3 l 1
 143.435546875 -3 84.86328125 -5.4375 54.5947265625 52.6787109375 c 0
 25.5 108.541015625 25.5 211.94921875 25.5 477 c 1
EndSplineSet
Validated: 524325
EndChar

StartChar: u
Encoding: 117 117 20
Width: 450
Flags: W
HStem: 1 60<135.971 270.257 395.913 427.5> 161 20G<22.5 82.5 322.5 382.5>
VStem: 22.5 60<115.022 181> 322.5 60<114.655 331>
LayerCount: 2
Fore
SplineSet
395.92578125 63.326171875 m 1
 395.630859375 63.2119140625 396.80078125 61 427.5 61 c 1
 427.5 1 l 1
 409.485351562 1 391.875 -0.30078125 372.705078125 7.94140625 c 0
 357.817382812 14.34375 341.979492188 28.26171875 333.62890625 57.732421875 c 1
 300.7890625 22.814453125 254.17578125 1 202.5 1 c 0
 103.14453125 1 22.5 81.64453125 22.5 181 c 1
 82.5 181 l 1
 82.5 114.755859375 136.255859375 61 202.5 61 c 0
 268.744140625 61 322.5 114.755859375 322.5 181 c 1
 323.147460938 181 l 1
 322.485351562 220.34375 322.5 269.353515625 322.5 331 c 1
 382.5 331 l 1
 382.5 181.806640625 382.5 76.91796875 395.92578125 63.326171875 c 1
EndSplineSet
Validated: 33
EndChar

StartChar: v
Encoding: 118 118 21
Width: 350
Flags: W
HStem: 0 21G<262.813 315.925> 0 21G<262.813 315.925> 166.553 21G<47.7437 93.1904> 310 20G<89.2393 129.037 255.925 315.925>
VStem: 255.925 60<89.5488 330>
LayerCount: 2
Fore
SplineSet
255.924804688 330 m 1xb8
 315.924804688 330 l 1
 315.924804688 0 l 1
 285.924804688 0 l 2
 239.702148438 0 208.102539062 49.9140625 170.465820312 110.130859375 c 0
 155.676757812 133.795898438 141.196289062 156.693359375 128.34765625 172.236328125 c 0
 128.159179688 172.466796875 114.354492188 189.0546875 106.038085938 191.9609375 c 0
 104.663085938 191.504882812 98.6357421875 188.334960938 87.7451171875 166.552734375 c 1
 34.0751953125 193.38671875 l 1
 50.2509765625 225.740234375 72.5537109375 252 105.924804688 252 c 0
 152.1484375 252 183.748046875 202.0859375 221.383789062 141.869140625 c 0
 233.317382812 122.775390625 245.114257812 104.173828125 255.924804688 89.548828125 c 1
 255.924804688 330 l 1xb8
EndSplineSet
Validated: 1
EndChar

StartChar: w
Encoding: 119 119 22
Width: 546
Flags: W
HStem: 0 60<182.86 273.14 362.86 453.14> 240 60<18 83.767>
VStem: 108 60<76.0146 215.621> 288 60<53.7637 120> 468 60<76.0146 120>
CounterMasks: 1 38
LayerCount: 2
Fore
SplineSet
288 120 m 1
 348 120 l 1
 348 86.875 374.875 60 408 60 c 0
 441.125 60 468 86.875 468 120 c 1
 528 120 l 1
 528 53.763671875 474.236328125 0 408 0 c 0
 341.763671875 0 288 53.763671875 288 120 c 1
18 300 m 1
 136.274414062 300 168 224.5546875 168 120 c 0
 168 86.875 194.875 60 228 60 c 0
 261.125 60 288 86.875 288 120 c 1
 348 120 l 1
 348 53.763671875 294.236328125 0 228 0 c 0
 161.763671875 0 108 53.763671875 108 120 c 0
 108 170.376953125 99.0703125 199.338867188 88.2216796875 214.525390625 c 0
 75.697265625 232.060546875 55.966796875 240 18 240 c 1
 18 300 l 1
EndSplineSet
Validated: 524293
EndChar

StartChar: x
Encoding: 120 120 23
Width: 400
Flags: W
HStem: 0 60<50 100.033 299.967 350> 300 60<50 100.033 299.967 350>
VStem: 50 300
LayerCount: 2
Fore
SplineSet
50 60 m 1
 172.885742188 60 177.525390625 360 350 360 c 1
 350 300 l 1
 227.114257812 300 222.474609375 0 50 0 c 1
 50 60 l 1
350 0 m 1
 177.525390625 0 172.885742188 300 50 300 c 1
 50 360 l 1
 222.474609375 360 227.114257812 60 350 60 c 1
 350 0 l 1
EndSplineSet
Validated: 5
EndChar

StartChar: y
Encoding: 121 121 24
Width: 306
Flags: W
HStem: -240 60<128.287 172.272> 0 60<88.048 179.059> 150 60<255.277 293.287>
VStem: 188.287 60<-163.985 25.2529>
LayerCount: 2
Fore
SplineSet
293.287109375 210 m 1
 293.287109375 150 l 1
 278.388671875 150 268.235351562 149.52734375 264.125 148.529296875 c 0
 261.668945312 147.934570312 261.065429688 147.788085938 259.102539062 142.76171875 c 0
 248.690429688 116.10546875 248.287109375 41.8095703125 248.287109375 -120 c 0
 248.287109375 -186.236328125 194.5234375 -240 128.287109375 -240 c 1
 128.287109375 -180 l 1
 161.412109375 -180 188.287109375 -153.125 188.287109375 -120 c 0
 188.287109375 63.6650390625 188.489257812 126.923828125 203.192382812 164.5625 c 0
 209.770507812 181.403320312 222.124023438 196.01953125 238.4921875 203.05859375 c 0
 257.662109375 211.30078125 275.272460938 210 293.287109375 210 c 1
76.416015625 140.53515625 m 1
 61.9697265625 100.833984375 91.7861328125 60 132.787109375 60 c 0
 162.552734375 60 186.701171875 80.25 191.875976562 109.608398438 c 1
 211.553710938 106.103515625 231.390625 102.711914062 250.96484375 99.134765625 c 1
 240.803710938 41.513671875 191.342773438 0 132.787109375 0 c 0
 49.666015625 0 -8.4130859375 82.9072265625 20.0224609375 161.0546875 c 1
 76.416015625 140.53515625 l 1
EndSplineSet
Validated: 524325
EndChar

StartChar: z
Encoding: 122 122 25
Width: 400
Flags: W
HStem: 0 60<50 100.234 164.059 350> 300 60<50 235.941 299.766 350>
VStem: 50 300<0 60 300 360>
LayerCount: 2
Fore
SplineSet
50 300 m 1
 50 360 l 1
 350 360 l 1
 350 300 l 1
 261.78125 300 234.509765625 146.193359375 164.05859375 60 c 1
 350 60 l 1
 350 0 l 1
 50 0 l 1
 50 60 l 1
 138.21875 60 165.490234375 213.806640625 235.94140625 300 c 1
 50 300 l 1
EndSplineSet
Validated: 1
EndChar
